<?xml version="1.0" encoding="utf-8"?>
<svg width="48px" height="34px" viewBox="0 0 48 34" version="1.1" xmlns:xlink="http://www.w3.org/1999/xlink" xmlns="http://www.w3.org/2000/svg">
  <g id="furniture">
    <path d="M32.2266 10.6141C31.3429 9.75689 30.1831 9.2823 28.9501 9.27687L28.9501 4.7751C28.9501 3.33719 28.3015 1.92463 27.215 0.997183C26.3002 0.216095 25.1774 -0.123367 24.0531 0.040386C19.0525 0.769668 14.5924 0.769668 9.59216 0.040386C8.46753 -0.12373 7.34509 0.215732 6.43066 0.996821C5.34448 1.92427 4.69592 3.33683 4.69592 4.7751L4.69592 9.27687C4.03198 9.28012 3.38855 9.41961 2.78467 9.68951C2.43054 9.84746 2.27344 10.2594 2.43311 10.6097C2.59277 10.96 3.00952 11.1158 3.36328 10.9575C3.81409 10.7561 4.29749 10.6601 4.79736 10.6688C4.9552 10.672 5.11047 10.6865 5.26245 10.7115C5.27344 10.7137 5.28442 10.7155 5.29578 10.7173C6.854 10.9923 8.05115 12.3856 8.05115 14.0337L8.05115 22.5594C8.05115 23.6977 8.98718 24.6237 10.1382 24.6237L23.5074 24.6237C24.6581 24.6237 25.5941 23.6977 25.5941 22.5594L25.5941 14.0337C25.5941 12.2139 27.0538 10.7043 28.8483 10.6688C29.7502 10.6521 30.5995 10.9843 31.2422 11.6074C31.8853 12.2309 32.2394 13.0646 32.2394 13.9551C32.2394 15.2274 31.485 16.3972 30.3179 16.9352C30.0699 17.0493 29.9117 17.2953 29.9117 17.5656L29.9117 26.8158C29.9117 27.9625 28.9691 28.895 27.8101 28.895L5.83521 28.895C4.67651 28.895 3.73352 27.9625 3.73352 26.8158L3.73352 17.5656C3.73352 17.2953 3.57532 17.0497 3.32739 16.9352C2.16028 16.3972 1.40625 15.2274 1.40625 13.9551C1.40625 13.4591 1.51465 12.983 1.72888 12.5403C1.89624 12.1936 1.74792 11.7781 1.39746 11.6125C1.047 11.447 0.627319 11.5937 0.459961 11.9404C0.154541 12.5722 0 13.2501 0 13.9551C0 15.6136 0.900146 17.1493 2.32727 17.9844L2.32727 26.8158C2.32727 28.7294 3.90088 30.2862 5.83521 30.2862L6.49475 30.2862L6.49475 32.4052C6.49475 33.1464 7.10449 33.75 7.85376 33.75L8.99011 33.75C9.73975 33.75 10.3495 33.1464 10.3495 32.4052L10.3495 30.2862L23.2958 30.2862L23.2958 32.4052C23.2958 33.1464 23.9055 33.75 24.6552 33.75L25.7915 33.75C26.5411 33.75 27.1509 33.1464 27.1509 32.4052L27.1509 30.2862L27.8101 30.2862C29.7444 30.2862 31.3184 28.7294 31.3184 26.8158L31.3184 17.9844C32.7455 17.1493 33.6456 15.6132 33.6456 13.9551C33.6456 12.6878 33.1417 11.5013 32.2266 10.6141ZM24.1879 22.5594C24.1879 22.9303 23.8824 23.2325 23.5074 23.2325L10.1382 23.2325C9.76282 23.2325 9.4574 22.9303 9.4574 22.5594L9.4574 19.631L24.1879 19.631L24.1879 22.5594ZM24.1879 14.0337L24.1879 18.2398L9.4574 18.2398L9.4574 14.0337C9.4574 11.9074 8.03723 10.0811 6.10217 9.48337L6.10217 4.7751C6.10217 3.75128 6.58008 2.70681 7.34985 2.04962C7.77429 1.68734 8.47229 1.28266 9.38708 1.41671C14.5294 2.16628 19.1158 2.16628 24.2585 1.41671C25.1733 1.28303 25.8713 1.68734 26.2961 2.04999C27.0656 2.70717 27.5438 3.75128 27.5438 4.7751L27.5438 9.48337C25.6084 10.0808 24.1879 11.9074 24.1879 14.0337ZM8.94324 32.3588L7.901 32.3588L7.901 30.2862L8.94324 30.2862L8.94324 32.3588ZM25.7446 32.3588L24.702 32.3588L24.702 30.2862L25.7446 30.2862L25.7446 32.3588Z" id="Shape" fill="#FFFFFF" stroke="none" />
    <path d="M2.60156 0.939045L2.35547 0.939045L2.35547 0.695589C2.35547 0.311204 2.04053 0 1.65234 0C1.26416 0 0.949219 0.311204 0.949219 0.695589L0.949219 0.939045L0.703125 0.939045C0.314941 0.939045 0 1.25025 0 1.63463C0 2.01866 0.314941 2.33022 0.703125 2.33022L0.949219 2.33022L0.949219 2.57368C0.949219 2.9577 1.26416 3.26927 1.65234 3.26927C2.04053 3.26927 2.35547 2.9577 2.35547 2.57368L2.35547 2.33022L2.60156 2.33022C2.98975 2.33022 3.30469 2.01866 3.30469 1.63463C3.30469 1.25025 2.98975 0.939045 2.60156 0.939045Z" transform="translate(10.504395 6.3115544)" id="Path" fill="#FFFFFF" stroke="none" />
    <path d="M2.6012 0.939045L2.35547 0.939045L2.35547 0.695589C2.35547 0.311204 2.04053 0 1.65234 0C1.26379 0 0.949219 0.311204 0.949219 0.695589L0.949219 0.939045L0.703125 0.939045C0.314575 0.939045 0 1.25025 0 1.63463C0 2.01866 0.314575 2.33022 0.703125 2.33022L0.949219 2.33022L0.949219 2.57368C0.949219 2.9577 1.26379 3.26927 1.65234 3.26927C2.04053 3.26927 2.35547 2.9577 2.35547 2.57368L2.35547 2.33022L2.6012 2.33022C2.98975 2.33022 3.30432 2.01866 3.30432 1.63463C3.30432 1.25025 2.98975 0.939045 2.6012 0.939045Z" transform="translate(19.836548 6.3115544)" id="Path" fill="#FFFFFF" stroke="none" />
    <path d="M12.6907 9.87193L8.13867 9.87193L8.13867 6.73634L10.6223 6.73634C11.038 6.73634 11.4287 6.53527 11.6675 6.19835C11.9059 5.86179 11.9637 5.42958 11.8217 5.04302L10.2766 0.831446C10.0939 0.334028 9.61194 0 9.0769 0L5.79419 0C5.25916 0 4.77722 0.334028 4.59448 0.831808L3.04944 5.04302C2.90735 5.42958 2.96521 5.86179 3.20361 6.19835C3.44238 6.53527 3.83313 6.73634 4.24878 6.73634L6.73242 6.73634L6.73242 9.87193L1.49487 9.87193C0.670532 9.87193 0 10.5353 0 11.3508L0 12.1866C0 13.0021 0.670532 13.6654 1.49487 13.6654L1.51575 13.6654L1.51575 14.9957C1.51575 15.3801 1.83032 15.6913 2.21887 15.6913C2.60706 15.6913 2.922 15.3801 2.922 14.9957L2.922 13.6654L11.2635 13.6654L11.2635 18.2838L2.922 18.2838L2.922 17.7781C2.922 17.3937 2.60706 17.0825 2.21887 17.0825C1.83032 17.0825 1.51575 17.3937 1.51575 17.7781L1.51575 24.5496C1.51575 25.0249 1.81238 25.4328 2.23242 25.602L2.23242 27.3077C2.23242 27.9446 2.75647 28.463 3.40027 28.463L4.43958 28.463C5.08337 28.463 5.60742 27.9446 5.60742 27.3077L5.60742 25.685L8.32617 25.685L8.32617 27.3077C8.32617 27.9446 8.85022 28.463 9.49402 28.463L10.5333 28.463C11.1771 28.463 11.7012 27.9446 11.7012 27.3077L11.7012 25.6712C12.2494 25.5861 12.6698 25.1155 12.6698 24.5496L12.6698 13.6654L12.6907 13.6654C13.515 13.6654 14.1855 13.0021 14.1855 12.1866L14.1855 11.3508C14.1855 10.5353 13.515 9.87193 12.6907 9.87193ZM5.88538 1.39118L8.98572 1.39118L10.4366 5.34517L4.43445 5.34517L5.88538 1.39118ZM11.2635 19.675L11.2635 24.2938L2.922 24.2938L2.922 19.675L11.2635 19.675ZM4.20117 27.0715L3.63867 27.0715L3.63867 25.685L4.20117 25.685L4.20117 27.0715ZM10.2949 27.0715L9.73242 27.0715L9.73242 25.685L10.2949 25.685L10.2949 27.0715ZM12.7793 12.1866C12.7793 12.2348 12.7394 12.2742 12.6907 12.2742L1.49487 12.2742C1.44617 12.2742 1.40625 12.2348 1.40625 12.1866L1.40625 11.3508C1.40625 11.3022 1.44617 11.2631 1.49487 11.2631L12.6907 11.2631C12.7394 11.2631 12.7793 11.3022 12.7793 11.3508L12.7793 12.1866Z" transform="translate(33.814453 5.28701)" id="Shape" fill="#FFFFFF" stroke="none" />
    <path d="M1.70142 1.39118C2.0896 1.39118 2.40454 1.07997 2.40454 0.695589C2.40454 0.311204 2.0896 0 1.70142 0L0.703125 0C0.314941 0 0 0.311204 0 0.695589C0 1.07997 0.314941 1.39118 0.703125 1.39118L1.70142 1.39118Z" transform="translate(39.704956 19.425217)" id="Path" fill="#FFFFFF" stroke="none" />
    <path d="M0.703125 1.39118L1.70142 1.39118C2.0896 1.39118 2.40454 1.07997 2.40454 0.695589C2.40454 0.311204 2.0896 0 1.70142 0L0.703125 0C0.314941 0 0 0.311204 0 0.695589C0 1.07997 0.314941 1.39118 0.703125 1.39118Z" transform="translate(39.704956 25.453653)" id="Path" fill="#FFFFFF" stroke="none" />
  </g>
</svg>